<mxfile host="app.diagrams.net" modified="2024-05-28T19:38:32.828Z" agent="Mozilla/5.0 (Windows NT 10.0; Win64; x64) AppleWebKit/537.36 (KHTML, like Gecko) Chrome/124.0.0.0 Safari/537.36" etag="d7ASD_wPBzAJpAqeKpfe" version="24.4.9" type="device">
  <diagram name="Сторінка-1" id="xLrMY8pWy-DpUrXRshUA">
    <mxGraphModel dx="1456" dy="678" grid="1" gridSize="10" guides="1" tooltips="1" connect="1" arrows="1" fold="1" page="1" pageScale="1" pageWidth="827" pageHeight="1169" math="0" shadow="0">
      <root>
        <mxCell id="0" />
        <mxCell id="1" parent="0" />
        <mxCell id="inkB7Cj6uyTquk0GmjOG-21" style="edgeStyle=orthogonalEdgeStyle;rounded=0;orthogonalLoop=1;jettySize=auto;html=1;exitX=0.25;exitY=1;exitDx=0;exitDy=0;entryX=0.5;entryY=0;entryDx=0;entryDy=0;" parent="1" source="inkB7Cj6uyTquk0GmjOG-10" target="WPzoRWSfovS5k_taFGuc-25" edge="1">
          <mxGeometry relative="1" as="geometry">
            <mxPoint x="685" y="340" as="targetPoint" />
          </mxGeometry>
        </mxCell>
        <mxCell id="inkB7Cj6uyTquk0GmjOG-22" style="edgeStyle=orthogonalEdgeStyle;rounded=0;orthogonalLoop=1;jettySize=auto;html=1;exitX=0.5;exitY=1;exitDx=0;exitDy=0;entryX=0.5;entryY=0;entryDx=0;entryDy=0;" parent="1" source="inkB7Cj6uyTquk0GmjOG-10" target="WPzoRWSfovS5k_taFGuc-24" edge="1">
          <mxGeometry relative="1" as="geometry">
            <mxPoint x="839.5" y="340" as="targetPoint" />
          </mxGeometry>
        </mxCell>
        <mxCell id="inkB7Cj6uyTquk0GmjOG-33" style="edgeStyle=orthogonalEdgeStyle;rounded=0;orthogonalLoop=1;jettySize=auto;html=1;entryX=0.5;entryY=0;entryDx=0;entryDy=0;" parent="1" source="inkB7Cj6uyTquk0GmjOG-10" target="WPzoRWSfovS5k_taFGuc-22" edge="1">
          <mxGeometry relative="1" as="geometry" />
        </mxCell>
        <mxCell id="inkB7Cj6uyTquk0GmjOG-10" value="&lt;span style=&quot;font-weight: 400;&quot;&gt;«interface»&lt;/span&gt;&lt;br style=&quot;font-weight: 400;&quot;&gt;&lt;div style=&quot;font-weight: 400;&quot;&gt;Subscription&lt;/div&gt;" style="swimlane;fontStyle=1;align=center;verticalAlign=top;childLayout=stackLayout;horizontal=1;startSize=36;horizontalStack=0;resizeParent=1;resizeParentMax=0;resizeLast=0;collapsible=1;marginBottom=0;whiteSpace=wrap;html=1;" parent="1" vertex="1">
          <mxGeometry x="759.5" y="90" width="160" height="174" as="geometry">
            <mxRectangle x="254" y="70" width="110" height="40" as="alternateBounds" />
          </mxGeometry>
        </mxCell>
        <mxCell id="inkB7Cj6uyTquk0GmjOG-11" value="+ montlyFee: number" style="text;strokeColor=none;fillColor=none;align=left;verticalAlign=top;spacingLeft=4;spacingRight=4;overflow=hidden;rotatable=0;points=[[0,0.5],[1,0.5]];portConstraint=eastwest;whiteSpace=wrap;html=1;" parent="inkB7Cj6uyTquk0GmjOG-10" vertex="1">
          <mxGeometry y="36" width="160" height="26" as="geometry" />
        </mxCell>
        <mxCell id="inkB7Cj6uyTquk0GmjOG-6" value="+ minPeriod: number&amp;nbsp;" style="text;strokeColor=none;fillColor=none;align=left;verticalAlign=top;spacingLeft=4;spacingRight=4;overflow=hidden;rotatable=0;points=[[0,0.5],[1,0.5]];portConstraint=eastwest;whiteSpace=wrap;html=1;" parent="inkB7Cj6uyTquk0GmjOG-10" vertex="1">
          <mxGeometry y="62" width="160" height="26" as="geometry" />
        </mxCell>
        <mxCell id="inkB7Cj6uyTquk0GmjOG-3" value="+ chanels: string[]" style="text;strokeColor=none;fillColor=none;align=left;verticalAlign=top;spacingLeft=4;spacingRight=4;overflow=hidden;rotatable=0;points=[[0,0.5],[1,0.5]];portConstraint=eastwest;whiteSpace=wrap;html=1;" parent="inkB7Cj6uyTquk0GmjOG-10" vertex="1">
          <mxGeometry y="88" width="160" height="26" as="geometry" />
        </mxCell>
        <mxCell id="inkB7Cj6uyTquk0GmjOG-8" value="+ features: string[]" style="text;strokeColor=none;fillColor=none;align=left;verticalAlign=top;spacingLeft=4;spacingRight=4;overflow=hidden;rotatable=0;points=[[0,0.5],[1,0.5]];portConstraint=eastwest;whiteSpace=wrap;html=1;" parent="inkB7Cj6uyTquk0GmjOG-10" vertex="1">
          <mxGeometry y="114" width="160" height="26" as="geometry" />
        </mxCell>
        <mxCell id="inkB7Cj6uyTquk0GmjOG-12" value="" style="line;strokeWidth=1;fillColor=none;align=left;verticalAlign=middle;spacingTop=-1;spacingLeft=3;spacingRight=3;rotatable=0;labelPosition=right;points=[];portConstraint=eastwest;strokeColor=inherit;" parent="inkB7Cj6uyTquk0GmjOG-10" vertex="1">
          <mxGeometry y="140" width="160" height="8" as="geometry" />
        </mxCell>
        <mxCell id="inkB7Cj6uyTquk0GmjOG-13" value="+ getDescription(): string" style="text;strokeColor=none;fillColor=none;align=left;verticalAlign=top;spacingLeft=4;spacingRight=4;overflow=hidden;rotatable=0;points=[[0,0.5],[1,0.5]];portConstraint=eastwest;whiteSpace=wrap;html=1;" parent="inkB7Cj6uyTquk0GmjOG-10" vertex="1">
          <mxGeometry y="148" width="160" height="26" as="geometry" />
        </mxCell>
        <mxCell id="inkB7Cj6uyTquk0GmjOG-23" style="edgeStyle=orthogonalEdgeStyle;rounded=0;orthogonalLoop=1;jettySize=auto;html=1;exitX=0.75;exitY=1;exitDx=0;exitDy=0;entryX=0.5;entryY=0;entryDx=0;entryDy=0;" parent="1" source="inkB7Cj6uyTquk0GmjOG-10" target="WPzoRWSfovS5k_taFGuc-10" edge="1">
          <mxGeometry relative="1" as="geometry">
            <mxPoint x="998.02" y="336" as="targetPoint" />
          </mxGeometry>
        </mxCell>
        <mxCell id="WPzoRWSfovS5k_taFGuc-10" value="PremiumSubscription" style="swimlane;fontStyle=1;align=center;verticalAlign=top;childLayout=stackLayout;horizontal=1;startSize=26;horizontalStack=0;resizeParent=1;resizeParentMax=0;resizeLast=0;collapsible=1;marginBottom=0;whiteSpace=wrap;html=1;" vertex="1" parent="1">
          <mxGeometry x="910" y="392" width="160" height="52" as="geometry" />
        </mxCell>
        <mxCell id="WPzoRWSfovS5k_taFGuc-51" value="+ getDescription(): string" style="text;strokeColor=none;fillColor=none;align=left;verticalAlign=top;spacingLeft=4;spacingRight=4;overflow=hidden;rotatable=0;points=[[0,0.5],[1,0.5]];portConstraint=eastwest;whiteSpace=wrap;html=1;" vertex="1" parent="WPzoRWSfovS5k_taFGuc-10">
          <mxGeometry y="26" width="160" height="26" as="geometry" />
        </mxCell>
        <mxCell id="WPzoRWSfovS5k_taFGuc-34" style="edgeStyle=orthogonalEdgeStyle;rounded=0;orthogonalLoop=1;jettySize=auto;html=1;exitX=0.25;exitY=1;exitDx=0;exitDy=0;entryX=0.5;entryY=0;entryDx=0;entryDy=0;" edge="1" parent="1" source="WPzoRWSfovS5k_taFGuc-22" target="WPzoRWSfovS5k_taFGuc-28">
          <mxGeometry relative="1" as="geometry" />
        </mxCell>
        <mxCell id="WPzoRWSfovS5k_taFGuc-35" style="edgeStyle=orthogonalEdgeStyle;rounded=0;orthogonalLoop=1;jettySize=auto;html=1;exitX=0.5;exitY=1;exitDx=0;exitDy=0;entryX=0.5;entryY=0;entryDx=0;entryDy=0;" edge="1" parent="1" source="WPzoRWSfovS5k_taFGuc-22" target="WPzoRWSfovS5k_taFGuc-27">
          <mxGeometry relative="1" as="geometry" />
        </mxCell>
        <mxCell id="WPzoRWSfovS5k_taFGuc-36" style="edgeStyle=orthogonalEdgeStyle;rounded=0;orthogonalLoop=1;jettySize=auto;html=1;exitX=0.75;exitY=1;exitDx=0;exitDy=0;entryX=0.5;entryY=0;entryDx=0;entryDy=0;" edge="1" parent="1" source="WPzoRWSfovS5k_taFGuc-22" target="WPzoRWSfovS5k_taFGuc-26">
          <mxGeometry relative="1" as="geometry" />
        </mxCell>
        <mxCell id="WPzoRWSfovS5k_taFGuc-22" value="SubscriptionFactory" style="swimlane;fontStyle=1;align=center;verticalAlign=top;childLayout=stackLayout;horizontal=1;startSize=26;horizontalStack=0;resizeParent=1;resizeParentMax=0;resizeLast=0;collapsible=1;marginBottom=0;whiteSpace=wrap;html=1;" vertex="1" parent="1">
          <mxGeometry x="300" y="220" width="160" height="52" as="geometry">
            <mxRectangle x="360" y="440" width="150" height="30" as="alternateBounds" />
          </mxGeometry>
        </mxCell>
        <mxCell id="WPzoRWSfovS5k_taFGuc-20" value="+ getDescription(): string" style="text;strokeColor=none;fillColor=none;align=left;verticalAlign=top;spacingLeft=4;spacingRight=4;overflow=hidden;rotatable=0;points=[[0,0.5],[1,0.5]];portConstraint=eastwest;whiteSpace=wrap;html=1;" vertex="1" parent="WPzoRWSfovS5k_taFGuc-22">
          <mxGeometry y="26" width="160" height="26" as="geometry" />
        </mxCell>
        <mxCell id="WPzoRWSfovS5k_taFGuc-24" value="EducationalSubscription" style="swimlane;fontStyle=1;align=center;verticalAlign=top;childLayout=stackLayout;horizontal=1;startSize=26;horizontalStack=0;resizeParent=1;resizeParentMax=0;resizeLast=0;collapsible=1;marginBottom=0;whiteSpace=wrap;html=1;" vertex="1" parent="1">
          <mxGeometry x="759.5" y="470" width="160" height="52" as="geometry" />
        </mxCell>
        <mxCell id="WPzoRWSfovS5k_taFGuc-52" value="+ getDescription(): string" style="text;strokeColor=none;fillColor=none;align=left;verticalAlign=top;spacingLeft=4;spacingRight=4;overflow=hidden;rotatable=0;points=[[0,0.5],[1,0.5]];portConstraint=eastwest;whiteSpace=wrap;html=1;" vertex="1" parent="WPzoRWSfovS5k_taFGuc-24">
          <mxGeometry y="26" width="160" height="26" as="geometry" />
        </mxCell>
        <mxCell id="WPzoRWSfovS5k_taFGuc-25" value="DomesticSubscription" style="swimlane;fontStyle=1;align=center;verticalAlign=top;childLayout=stackLayout;horizontal=1;startSize=26;horizontalStack=0;resizeParent=1;resizeParentMax=0;resizeLast=0;collapsible=1;marginBottom=0;whiteSpace=wrap;html=1;" vertex="1" parent="1">
          <mxGeometry x="620" y="392" width="160" height="52" as="geometry" />
        </mxCell>
        <mxCell id="WPzoRWSfovS5k_taFGuc-53" value="+ getDescription(): string" style="text;strokeColor=none;fillColor=none;align=left;verticalAlign=top;spacingLeft=4;spacingRight=4;overflow=hidden;rotatable=0;points=[[0,0.5],[1,0.5]];portConstraint=eastwest;whiteSpace=wrap;html=1;" vertex="1" parent="WPzoRWSfovS5k_taFGuc-25">
          <mxGeometry y="26" width="160" height="26" as="geometry" />
        </mxCell>
        <mxCell id="WPzoRWSfovS5k_taFGuc-26" value="PremiumSubscriptionFactory" style="swimlane;fontStyle=1;align=center;verticalAlign=top;childLayout=stackLayout;horizontal=1;startSize=26;horizontalStack=0;resizeParent=1;resizeParentMax=0;resizeLast=0;collapsible=1;marginBottom=0;whiteSpace=wrap;html=1;" vertex="1" parent="1">
          <mxGeometry x="440" y="320" width="170" height="52" as="geometry" />
        </mxCell>
        <mxCell id="WPzoRWSfovS5k_taFGuc-29" value="+ getDescription(): string" style="text;strokeColor=none;fillColor=none;align=left;verticalAlign=top;spacingLeft=4;spacingRight=4;overflow=hidden;rotatable=0;points=[[0,0.5],[1,0.5]];portConstraint=eastwest;whiteSpace=wrap;html=1;" vertex="1" parent="WPzoRWSfovS5k_taFGuc-26">
          <mxGeometry y="26" width="170" height="26" as="geometry" />
        </mxCell>
        <mxCell id="WPzoRWSfovS5k_taFGuc-28" value="DomesticSubscriptionFactory" style="swimlane;fontStyle=1;align=center;verticalAlign=top;childLayout=stackLayout;horizontal=1;startSize=26;horizontalStack=0;resizeParent=1;resizeParentMax=0;resizeLast=0;collapsible=1;marginBottom=0;whiteSpace=wrap;html=1;" vertex="1" parent="1">
          <mxGeometry x="130" y="320" width="180" height="52" as="geometry" />
        </mxCell>
        <mxCell id="WPzoRWSfovS5k_taFGuc-31" value="+ getDescription(): string" style="text;strokeColor=none;fillColor=none;align=left;verticalAlign=top;spacingLeft=4;spacingRight=4;overflow=hidden;rotatable=0;points=[[0,0.5],[1,0.5]];portConstraint=eastwest;whiteSpace=wrap;html=1;" vertex="1" parent="WPzoRWSfovS5k_taFGuc-28">
          <mxGeometry y="26" width="180" height="26" as="geometry" />
        </mxCell>
        <mxCell id="WPzoRWSfovS5k_taFGuc-27" value="EducationalSubscriptionFactory" style="swimlane;fontStyle=1;align=center;verticalAlign=top;childLayout=stackLayout;horizontal=1;startSize=26;horizontalStack=0;resizeParent=1;resizeParentMax=0;resizeLast=0;collapsible=1;marginBottom=0;whiteSpace=wrap;html=1;" vertex="1" parent="1">
          <mxGeometry x="280" y="392" width="200" height="52" as="geometry" />
        </mxCell>
        <mxCell id="WPzoRWSfovS5k_taFGuc-30" value="+ getDescription(): string" style="text;strokeColor=none;fillColor=none;align=left;verticalAlign=top;spacingLeft=4;spacingRight=4;overflow=hidden;rotatable=0;points=[[0,0.5],[1,0.5]];portConstraint=eastwest;whiteSpace=wrap;html=1;" vertex="1" parent="WPzoRWSfovS5k_taFGuc-27">
          <mxGeometry y="26" width="200" height="26" as="geometry" />
        </mxCell>
        <mxCell id="WPzoRWSfovS5k_taFGuc-54" style="edgeStyle=orthogonalEdgeStyle;rounded=0;orthogonalLoop=1;jettySize=auto;html=1;entryX=0.513;entryY=0.962;entryDx=0;entryDy=0;entryPerimeter=0;" edge="1" parent="1" source="WPzoRWSfovS5k_taFGuc-27" target="WPzoRWSfovS5k_taFGuc-53">
          <mxGeometry relative="1" as="geometry">
            <Array as="points">
              <mxPoint x="380" y="600" />
              <mxPoint x="702" y="600" />
            </Array>
          </mxGeometry>
        </mxCell>
        <mxCell id="WPzoRWSfovS5k_taFGuc-55" style="edgeStyle=orthogonalEdgeStyle;rounded=0;orthogonalLoop=1;jettySize=auto;html=1;entryX=0.528;entryY=1;entryDx=0;entryDy=0;entryPerimeter=0;" edge="1" parent="1" source="WPzoRWSfovS5k_taFGuc-27" target="WPzoRWSfovS5k_taFGuc-52">
          <mxGeometry relative="1" as="geometry">
            <Array as="points">
              <mxPoint x="380" y="600" />
              <mxPoint x="844" y="600" />
            </Array>
          </mxGeometry>
        </mxCell>
        <mxCell id="WPzoRWSfovS5k_taFGuc-56" style="edgeStyle=orthogonalEdgeStyle;rounded=0;orthogonalLoop=1;jettySize=auto;html=1;entryX=0.619;entryY=1.077;entryDx=0;entryDy=0;entryPerimeter=0;" edge="1" parent="1" source="WPzoRWSfovS5k_taFGuc-27" target="WPzoRWSfovS5k_taFGuc-51">
          <mxGeometry relative="1" as="geometry">
            <Array as="points">
              <mxPoint x="380" y="600" />
              <mxPoint x="1009" y="600" />
            </Array>
          </mxGeometry>
        </mxCell>
        <mxCell id="WPzoRWSfovS5k_taFGuc-58" value="" style="endArrow=none;html=1;rounded=0;exitX=0.471;exitY=1.192;exitDx=0;exitDy=0;exitPerimeter=0;" edge="1" parent="1" source="WPzoRWSfovS5k_taFGuc-29">
          <mxGeometry relative="1" as="geometry">
            <mxPoint x="470" y="522" as="sourcePoint" />
            <mxPoint x="520" y="600" as="targetPoint" />
          </mxGeometry>
        </mxCell>
        <mxCell id="WPzoRWSfovS5k_taFGuc-60" value="" style="shape=partialRectangle;whiteSpace=wrap;html=1;top=0;left=0;fillColor=none;direction=south;" vertex="1" parent="1">
          <mxGeometry x="220" y="370" width="160" height="230" as="geometry" />
        </mxCell>
        <mxCell id="WPzoRWSfovS5k_taFGuc-61" value="Concreate Factory 2" style="text;strokeColor=none;fillColor=none;align=left;verticalAlign=top;spacingLeft=4;spacingRight=4;overflow=hidden;rotatable=0;points=[[0,0.5],[1,0.5]];portConstraint=eastwest;whiteSpace=wrap;html=1;" vertex="1" parent="1">
          <mxGeometry x="250" y="450" width="130" height="26" as="geometry" />
        </mxCell>
        <mxCell id="WPzoRWSfovS5k_taFGuc-62" value="Concreate Factory 1" style="text;strokeColor=none;fillColor=none;align=left;verticalAlign=top;spacingLeft=4;spacingRight=4;overflow=hidden;rotatable=0;points=[[0,0.5],[1,0.5]];portConstraint=eastwest;whiteSpace=wrap;html=1;" vertex="1" parent="1">
          <mxGeometry x="60" y="380" width="130" height="26" as="geometry" />
        </mxCell>
        <mxCell id="WPzoRWSfovS5k_taFGuc-63" value="Concreate Factory 3" style="text;strokeColor=none;fillColor=none;align=left;verticalAlign=top;spacingLeft=4;spacingRight=4;overflow=hidden;rotatable=0;points=[[0,0.5],[1,0.5]];portConstraint=eastwest;whiteSpace=wrap;html=1;" vertex="1" parent="1">
          <mxGeometry x="540" y="290" width="130" height="26" as="geometry" />
        </mxCell>
        <mxCell id="WPzoRWSfovS5k_taFGuc-64" value="Concreate Product 1" style="text;strokeColor=none;fillColor=none;align=left;verticalAlign=top;spacingLeft=4;spacingRight=4;overflow=hidden;rotatable=0;points=[[0,0.5],[1,0.5]];portConstraint=eastwest;whiteSpace=wrap;html=1;" vertex="1" parent="1">
          <mxGeometry x="560" y="450" width="130" height="26" as="geometry" />
        </mxCell>
        <mxCell id="WPzoRWSfovS5k_taFGuc-69" value="Concreate Product 2" style="text;strokeColor=none;fillColor=none;align=left;verticalAlign=top;spacingLeft=4;spacingRight=4;overflow=hidden;rotatable=0;points=[[0,0.5],[1,0.5]];portConstraint=eastwest;whiteSpace=wrap;html=1;" vertex="1" parent="1">
          <mxGeometry x="850" y="530" width="130" height="26" as="geometry" />
        </mxCell>
        <mxCell id="WPzoRWSfovS5k_taFGuc-70" value="Concreate Product 3" style="text;strokeColor=none;fillColor=none;align=left;verticalAlign=top;spacingLeft=4;spacingRight=4;overflow=hidden;rotatable=0;points=[[0,0.5],[1,0.5]];portConstraint=eastwest;whiteSpace=wrap;html=1;" vertex="1" parent="1">
          <mxGeometry x="1000" y="366" width="130" height="26" as="geometry" />
        </mxCell>
        <mxCell id="WPzoRWSfovS5k_taFGuc-71" value="Abstract Product" style="text;strokeColor=none;fillColor=none;align=left;verticalAlign=top;spacingLeft=4;spacingRight=4;overflow=hidden;rotatable=0;points=[[0,0.5],[1,0.5]];portConstraint=eastwest;whiteSpace=wrap;html=1;" vertex="1" parent="1">
          <mxGeometry x="780" y="64" width="130" height="26" as="geometry" />
        </mxCell>
      </root>
    </mxGraphModel>
  </diagram>
</mxfile>
